<svg width="25" height="24" viewBox="0 0 25 24" fill="none" xmlns="http://www.w3.org/2000/svg">
<path d="M22.2001 0H3.0001C2.36358 0 1.75313 0.252857 1.30305 0.702943C0.852955 1.15303 0.600098 1.76348 0.600098 2.4V21.6C0.600098 22.2365 0.852955 22.8469 1.30305 23.297C1.75313 23.7472 2.36358 24 3.0001 24H22.2001C22.8366 24 23.447 23.7472 23.8971 23.297C24.3473 22.8469 24.6001 22.2365 24.6001 21.6V2.4C24.6001 1.76348 24.3473 1.15303 23.8971 0.702943C23.447 0.252857 22.8366 0 22.2001 0Z" fill="#00A3FF"/>
<path d="M8.49784 11.29L8.38585 11.46C7.77328 12.3974 7.50592 13.5187 7.62963 14.6317C7.75333 15.7447 8.26039 16.78 9.06385 17.56C10.0083 18.4828 11.2774 18.9978 12.5979 18.994L8.49784 11.29Z" fill="white"/>
<path opacity="0.6" d="M12.5971 13.63L8.49707 11.29L12.5971 18.994V13.63ZM16.7021 11.29L16.814 11.46C17.4269 12.3973 17.6943 13.5187 17.5706 14.6317C17.4469 15.7447 16.9397 16.7801 16.136 17.56C15.1916 18.4828 13.9225 18.9978 12.602 18.994L16.7021 11.29Z" fill="white"/>
<path opacity="0.2" d="M12.6021 13.63L16.7021 11.29L12.6021 18.994V13.63ZM12.603 8.39999V12.438L16.134 10.42L12.603 8.39999Z" fill="white"/>
<path opacity="0.6" d="M12.6033 8.39999L9.06934 10.42L12.6033 12.438V8.39999Z" fill="white"/>
<path d="M12.6033 5.00198L9.06934 10.42L12.6033 8.39299V5.00198Z" fill="white"/>
<path opacity="0.6" d="M12.603 8.39406L16.137 10.4211L12.603 4.99905V8.39406Z" fill="white"/>
</svg>
