<svg width="21" height="20" viewBox="0 0 21 20" fill="none" xmlns="http://www.w3.org/2000/svg">
<g clip-path="url(#clip0_52_966)">
<path d="M18.5 0H2.5C1.96957 0 1.46086 0.210714 1.08579 0.585786C0.710714 0.960859 0.5 1.46957 0.5 2V18C0.5 18.5304 0.710714 19.0391 1.08579 19.4142C1.46086 19.7893 1.96957 20 2.5 20H18.5C19.0304 20 19.5391 19.7893 19.9142 19.4142C20.2893 19.0391 20.5 18.5304 20.5 18V2C20.5 1.46957 20.2893 0.960859 19.9142 0.585786C19.5391 0.210714 19.0304 0 18.5 0Z" fill="#00A3FF"/>
<path d="M7.08162 9.4083L6.98829 9.54997C6.47782 10.3312 6.25502 11.2656 6.35811 12.1931C6.46119 13.1206 6.88374 13.9833 7.55329 14.6333C8.34033 15.4023 9.39792 15.8315 10.4983 15.8283L7.08162 9.40747V9.4083Z" fill="white"/>
<path opacity="0.6" d="M10.4975 11.3583L7.08081 9.4083L10.4975 15.8283V11.3583ZM13.9183 9.4083L14.0116 9.54997C14.5223 10.3311 14.7452 11.2656 14.6421 12.1931C14.539 13.1206 14.1163 13.9834 13.4466 14.6333C12.6596 15.4023 11.602 15.8315 10.5016 15.8283L13.9183 9.40747V9.4083Z" fill="white"/>
<path opacity="0.2" d="M10.5017 11.3583L13.9184 9.40833L10.5017 15.8283V11.3583ZM10.5025 7V10.365L13.445 8.68333L10.5025 7Z" fill="white"/>
<path opacity="0.6" d="M10.5026 7L7.55762 8.68333L10.5026 10.365V7Z" fill="white"/>
<path d="M10.5026 4.16833L7.55762 8.68334L10.5026 6.99417V4.16833Z" fill="white"/>
<path opacity="0.6" d="M10.5024 6.99506L13.4474 8.68423L10.5024 4.16589V6.99506Z" fill="white"/>
</g>
<defs>
<clipPath id="clip0_52_966">
<rect x="0.5" width="20" height="20" rx="10" fill="white"/>
</clipPath>
</defs>
</svg>
